<?xml version="1.0" standalone="no"?>
<!DOCTYPE svg PUBLIC "-//W3C//DTD SVG 20010904//EN"
 "http://www.w3.org/TR/2001/REC-SVG-20010904/DTD/svg10.dtd">
<svg version="1.0" xmlns="http://www.w3.org/2000/svg"
 width="1024.000000pt" height="1024.000000pt" viewBox="0 0 1024.000000 1024.000000"
 preserveAspectRatio="xMidYMid meet">

<g transform="translate(0.000000,1024.000000) scale(0.100000,-0.100000)"
fill="#000000" stroke="none">
<path d="M1015 10233 c-502 -47 -821 -283 -949 -703 -14 -47 -33 -128 -43
-180 -17 -90 -18 -308 -18 -4230 0 -3922 1 -4140 18 -4230 50 -267 136 -446
284 -591 149 -146 319 -227 583 -276 90 -17 308 -18 4230 -18 3922 0 4140 1
4230 18 267 50 446 136 591 284 146 149 227 319 276 583 17 90 18 308 18 4230
0 3922 -1 4140 -18 4230 -49 264 -130 434 -276 583 -142 145 -314 229 -581
284 -80 16 -334 17 -4195 18 -2261 1 -4128 0 -4150 -2z m6258 -1859 c213 -40
425 -171 562 -345 70 -90 149 -250 175 -354 74 -296 -1 -614 -202 -852 -31
-38 -353 -363 -715 -723 -725 -722 -712 -711 -916 -788 -115 -43 -197 -51
-247 -24 -105 58 -132 190 -57 276 26 31 51 44 131 72 187 64 150 31 1073 964
435 440 493 503 525 565 118 228 83 493 -87 673 -215 228 -558 254 -799 62
-24 -19 -282 -272 -573 -562 l-528 -528 -3 257 -2 256 426 421 c235 232 455
441 489 467 217 158 475 215 748 163z m-2915 -1528 c64 -18 161 -46 215 -62
57 -16 107 -36 118 -48 20 -21 39 -61 174 -361 97 -217 157 -350 236 -522 140
-309 209 -461 274 -608 37 -82 85 -189 107 -236 l40 -86 61 -18 c34 -10 141
-42 237 -71 96 -29 253 -75 348 -104 l173 -51 76 70 c206 190 503 244 780 142
220 -81 406 -307 458 -555 58 -284 -68 -592 -310 -756 -98 -66 -139 -85 -236
-111 -163 -44 -376 -22 -523 52 -87 44 -145 89 -224 174 -79 85 -155 223 -172
314 -6 30 -12 56 -13 58 -4 3 -400 -36 -404 -40 -4 -4 -43 -400 -40 -404 2 -1
28 -7 57 -13 67 -13 197 -75 268 -129 112 -83 213 -224 258 -358 49 -145 52
-277 12 -437 -58 -234 -239 -428 -474 -510 -256 -89 -535 -36 -742 141 -313
267 -341 762 -61 1066 l70 76 -51 173 c-29 95 -75 252 -104 348 -29 96 -61
203 -71 237 -10 34 -23 64 -29 67 -6 2 -101 46 -211 96 -110 50 -206 94 -212
97 -10 4 -13 -44 -13 -223 l0 -229 -541 -534 c-298 -294 -568 -556 -600 -582
-174 -139 -417 -207 -664 -186 -245 20 -481 145 -644 340 -77 91 -163 262
-191 377 -53 215 -28 453 68 645 67 136 113 187 624 700 279 281 508 517 508
524 0 8 -16 69 -36 137 -38 128 -39 154 -6 194 27 34 84 30 221 -13 l114 -36
33 29 c47 41 140 103 202 134 76 39 224 86 268 86 125 0 217 -138 166 -252
-24 -56 -70 -91 -144 -113 -32 -9 -58 -18 -58 -20 0 -7 173 -56 205 -58 33 -2
46 9 245 208 246 245 227 186 145 455 -101 331 -198 655 -206 689 -12 53 0 90
35 112 41 25 47 25 184 -15z m1579 -77 c36 -13 89 -64 102 -98 39 -98 52 -320
26 -451 -43 -224 -120 -358 -334 -580 l-120 -125 0 263 -1 264 40 82 c28 56
46 109 56 171 15 83 15 99 -2 202 -19 124 -14 165 27 217 44 56 137 81 206 55z"/>
<path d="M4370 6638 c0 -6 7 -34 15 -62 40 -137 177 -597 331 -1111 34 -115
93 -311 129 -435 174 -581 313 -1048 389 -1300 81 -267 90 -304 82 -333 -3
-14 -31 -46 -62 -73 -328 -280 -270 -759 116 -954 138 -70 337 -67 488 7 244
120 371 418 286 671 -75 223 -257 372 -487 398 -99 11 -82 -20 -296 530 -28
71 -51 142 -51 158 0 38 49 86 88 86 52 0 83 -38 127 -154 22 -58 43 -106 46
-106 3 0 13 71 21 158 l16 157 -35 80 c-20 44 -57 127 -83 185 -26 58 -78 173
-115 255 -37 83 -100 222 -140 310 -40 88 -104 230 -143 315 -38 85 -122 272
-187 415 -64 143 -148 330 -187 415 -38 85 -89 198 -113 250 l-42 95 -94 27
c-52 15 -95 28 -96 28 -2 0 -3 -5 -3 -12z m991 -2187 c60 -61 23 -156 -61
-156 -53 0 -90 38 -90 91 0 47 45 94 90 94 22 0 41 -9 61 -29z m382 -1278
c140 -63 217 -229 176 -378 -15 -53 -69 -133 -116 -169 -71 -57 -200 -82 -284
-55 -80 25 -164 93 -199 159 -67 129 -30 313 78 398 109 86 221 100 345 45z"/>
<path d="M5541 3003 c-99 -49 -92 -195 12 -247 53 -25 101 -15 149 34 34 33
38 43 38 86 0 111 -101 175 -199 127z"/>
<path d="M4431 5536 c-1 -211 -2 -221 -23 -243 -12 -13 -20 -25 -17 -27 7 -6
202 -66 206 -63 1 2 -10 46 -26 98 -16 52 -50 165 -75 252 -26 87 -51 168 -56
180 -5 14 -9 -58 -9 -197z"/>
<path d="M3445 5240 c-68 -68 -76 -80 -59 -86 10 -4 92 -40 181 -80 89 -41
168 -74 177 -74 8 0 20 17 27 38 6 20 29 71 50 113 l38 76 -72 21 c-165 50
-244 72 -253 72 -5 0 -45 -36 -89 -80z"/>
<path d="M4182 5046 c-47 -68 -98 -194 -85 -207 8 -8 252 -120 423 -194 41
-18 120 -54 174 -79 55 -25 101 -44 103 -42 5 4 -28 122 -90 321 -42 137 -44
140 -77 151 -68 24 -380 114 -392 114 -7 0 -33 -29 -56 -64z"/>
<path d="M2729 4513 c-480 -481 -508 -512 -543 -583 -85 -176 -85 -355 -1
-528 98 -198 302 -324 525 -323 148 0 244 33 365 124 61 46 1313 1293 1305
1299 -16 11 -277 128 -286 128 -7 0 -7 -19 2 -62 21 -99 -3 -166 -74 -214 -84
-58 -210 -26 -257 66 -26 50 -46 164 -49 274 l-3 110 -49 23 c-57 27 -425 193
-428 193 -1 0 -229 -228 -507 -507z"/>
<path d="M6775 4741 c-33 -10 -76 -25 -95 -34 -58 -25 -152 -100 -204 -161
-27 -31 -59 -59 -72 -62 -27 -7 -109 13 -369 92 -99 30 -227 69 -285 86 -58
17 -111 33 -117 36 -8 2 -1 -23 16 -59 145 -317 152 -335 145 -378 -4 -25 -3
-41 4 -41 5 0 72 6 148 14 77 8 185 18 241 22 l102 7 29 -30 c23 -22 31 -41
36 -88 22 -181 121 -341 266 -430 230 -140 513 -105 701 86 133 136 185 315
148 514 -21 115 -111 256 -207 327 -145 107 -332 145 -487 99z m249 -261 c151
-57 233 -207 202 -371 -19 -103 -93 -192 -196 -237 -55 -23 -184 -20 -245 7
-62 27 -129 91 -163 156 -23 43 -27 62 -27 140 0 76 4 98 24 137 42 82 126
153 211 179 49 14 138 9 194 -11z"/>
<path d="M6825 4279 c-91 -81 -49 -223 71 -237 83 -9 154 51 154 132 0 80 -58
136 -142 136 -39 0 -54 -6 -83 -31z"/>
</g>
</svg>
