<?xml version="1.0" standalone="no"?>
<!DOCTYPE svg PUBLIC "-//W3C//DTD SVG 20010904//EN"
 "http://www.w3.org/TR/2001/REC-SVG-20010904/DTD/svg10.dtd">
<svg version="1.0" xmlns="http://www.w3.org/2000/svg"
 width="300.000000pt" height="300.000000pt" viewBox="0 0 300.000000 300.000000"
 preserveAspectRatio="xMidYMid meet">
<metadata>
Created by potrace 1.10, written by Peter Selinger 2001-2011
</metadata>
<g transform="translate(0.000000,300.000000) scale(0.100000,-0.100000)"
fill="#ffffff" stroke="none">
<path d="M1973 2474 c-49 -18 -155 -107 -270 -228 l-83 -86 0 -83 c0 -46 5
-88 11 -94 7 -7 8 -40 5 -94 -18 -241 -18 -275 -2 -288 13 -11 19 -11 31 -1
13 10 15 9 15 -10 0 -29 52 -80 82 -80 13 0 48 12 78 26 42 19 98 69 253 222
109 108 212 216 227 238 60 86 76 193 43 289 -24 69 -120 166 -187 188 -60 21
-146 21 -203 1z m201 -34 c109 -41 179 -142 179 -259 0 -110 -19 -138 -252
-374 -171 -173 -216 -213 -269 -239 -53 -26 -66 -29 -88 -20 -59 27 -44 78 34
114 48 22 89 59 252 228 209 216 226 241 215 318 -7 47 -49 103 -96 128 -33
17 -111 19 -142 3 -12 -6 -100 -88 -194 -182 l-173 -172 0 81 0 81 141 136
c110 107 152 141 192 156 67 26 133 26 201 1z m-40 -134 c54 -23 76 -59 76
-129 l0 -59 -82 -86 c-240 -247 -335 -339 -356 -345 -13 -3 -22 -2 -20 1 76
142 76 273 -1 320 l-30 18 134 135 c162 163 196 180 279 145z m-379 -336 c12
-14 20 -41 23 -79 6 -86 -18 -150 -84 -219 l-53 -57 -1 78 c0 55 5 85 16 102
11 16 16 46 15 92 0 94 39 133 84 83z"/>
<path d="M1218 2039 c-37 -21 -40 -45 -17 -122 12 -39 21 -74 22 -77 0 -3 8
-29 18 -59 11 -30 19 -58 19 -62 0 -4 -14 -22 -32 -39 l-31 -32 -12 29 c-7 15
-22 36 -33 47 -29 25 -89 17 -151 -21 -41 -25 -51 -28 -89 -19 -36 7 -45 6
-63 -10 -18 -16 -20 -26 -14 -68 l6 -49 -150 -151 c-176 -178 -201 -218 -201
-332 0 -171 136 -308 305 -309 113 0 150 23 358 233 173 174 177 179 177 220
0 23 2 42 5 42 2 0 20 -7 39 -16 32 -16 36 -23 62 -116 l28 -99 -32 -58 c-27
-49 -32 -69 -32 -124 0 -76 17 -123 66 -177 38 -42 121 -80 176 -80 126 0 248
126 248 256 0 89 -84 212 -157 230 -15 4 -23 14 -23 28 0 32 13 46 47 50 28 3
33 -1 49 -36 21 -46 82 -104 132 -125 87 -36 197 -9 265 67 51 55 67 96 67
168 0 71 -18 119 -65 171 -79 88 -206 104 -308 41 l-52 -32 -97 28 c-54 15
-104 35 -112 43 -7 9 -62 124 -121 256 -59 132 -114 248 -122 257 -13 15 -47
27 -143 53 -8 2 -23 0 -32 -6z m97 -44 c29 -9 58 -21 63 -28 5 -7 60 -124 121
-262 62 -137 115 -253 119 -257 4 -4 59 -23 122 -42 112 -34 115 -34 135 -17
131 119 337 46 370 -131 16 -87 -48 -195 -137 -233 -108 -44 -243 13 -284 121
l-18 46 -55 -6 c-30 -4 -56 -8 -57 -9 -1 -1 -5 -27 -9 -57 l-7 -55 37 -14 c85
-30 145 -115 145 -206 0 -226 -308 -304 -411 -103 -41 80 -34 161 20 235 l29
41 -35 118 -35 119 -56 25 c-30 14 -59 27 -64 28 -4 2 -8 -25 -8 -60 l0 -64
-173 -171 c-195 -194 -226 -214 -332 -214 -159 0 -275 116 -275 276 0 107 22
143 204 324 l154 154 -13 43 c-17 58 -3 72 55 55 36 -11 42 -9 86 19 88 55
158 49 152 -13 -2 -24 -10 -35 -33 -46 l-30 -15 38 -9 c21 -5 39 -8 40 -5 1 2
28 31 61 65 l58 61 -42 142 c-33 114 -39 144 -29 156 7 8 18 13 26 10 8 -3 38
-13 68 -21z"/>
<path d="M1280 1944 c0 -2 63 -215 141 -475 l141 -471 -30 -32 c-42 -44 -52
-68 -52 -124 0 -85 61 -151 147 -159 91 -9 168 54 180 147 11 80 -55 163 -141
177 -33 5 -36 9 -75 106 -35 87 -39 103 -27 115 18 19 34 8 55 -37 l16 -36 3
52 c3 48 -8 75 -150 389 -138 305 -156 338 -180 345 -16 4 -28 6 -28 3z m184
-363 c59 -129 105 -235 104 -235 -2 -1 -18 -9 -36 -18 -24 -13 -34 -14 -37 -5
-13 34 -145 482 -145 490 0 19 9 1 114 -232z m111 -296 c0 -23 -34 -33 -45
-14 -13 20 1 40 24 37 13 -2 21 -10 21 -23z m69 -305 c21 -9 21 -9 -2 -9 -36
-1 -81 -29 -102 -64 -32 -52 -25 -102 23 -154 11 -13 16 -23 10 -23 -6 0 -23
14 -37 31 -21 24 -26 41 -26 82 0 46 5 58 40 101 22 26 40 58 40 69 0 21 0 21
16 -1 9 -13 26 -27 38 -32z m126 -136 c0 -56 -3 -65 -31 -93 -17 -17 -36 -31
-42 -31 -7 0 0 10 15 23 55 47 66 124 23 175 -35 41 -31 52 5 17 27 -26 30
-35 30 -91z m-81 81 c81 -41 56 -160 -36 -172 -37 -5 -46 -2 -73 25 -41 42
-42 92 -1 133 33 32 67 37 110 14z"/>
<path d="M1616 871 c-32 -36 3 -83 45 -61 25 14 25 56 0 70 -25 13 -25 13 -45
-9z"/>
<path d="M1298 1619 c3 -38 0 -64 -7 -69 -7 -4 4 -11 24 -17 27 -9 35 -9 31 0
-2 7 -12 42 -22 80 -10 37 -21 67 -24 67 -3 0 -3 -28 -2 -61z"/>
<path d="M1011 1536 l-23 -24 54 -24 53 -25 17 31 c19 37 17 42 -19 49 -16 3
-35 8 -43 12 -10 3 -25 -4 -39 -19z"/>
<path d="M1219 1467 c-10 -18 -19 -36 -19 -42 0 -5 48 -31 106 -57 58 -26 104
-42 101 -35 -2 6 -12 37 -22 67 -10 30 -19 56 -20 58 -2 2 -31 12 -65 22 l-61
19 -20 -32z m94 -24 c25 -5 56 -47 44 -60 -6 -5 -117 47 -117 56 0 14 14 22
29 16 9 -4 29 -9 44 -12z"/>
<path d="M793 1318 c-120 -121 -154 -162 -163 -195 -24 -80 12 -161 90 -200
101 -52 139 -31 374 205 l189 190 -41 21 c-23 12 -43 21 -45 21 -2 0 -2 -14 1
-30 5 -38 -12 -60 -48 -60 -38 0 -53 22 -58 85 l-4 53 -62 27 c-33 15 -66 29
-71 31 -6 3 -79 -64 -162 -148z m214 91 c48 -20 51 -23 56 -65 6 -53 29 -92
64 -105 27 -10 26 -11 -98 -135 -159 -160 -170 -168 -235 -168 -106 0 -171 93
-133 191 9 26 275 303 290 303 3 0 29 -9 56 -21z"/>
<path d="M1955 1378 c-11 -6 -34 -24 -51 -40 l-32 -30 -111 35 c-62 19 -111
32 -109 28 2 -3 14 -34 28 -69 l25 -63 74 3 73 3 13 -48 c39 -151 237 -181
305 -46 58 112 -20 239 -144 239 -28 0 -60 -6 -71 -12z m135 -33 c47 -24 70
-62 70 -114 0 -46 -29 -111 -50 -111 -6 0 0 14 12 31 44 59 24 143 -44 183
-71 43 -158 -9 -177 -107 -6 -29 -9 -34 -10 -16 -1 15 -8 32 -16 39 -19 15
-19 30 -2 30 8 0 24 12 38 26 47 51 123 68 179 39z m-305 -43 l60 -18 -54 -7
c-59 -7 -66 -5 -81 24 -14 24 -4 24 75 1z m285 3 c59 -30 68 -98 21 -146 -78
-77 -200 14 -147 110 15 26 51 50 79 51 10 0 31 -7 47 -15z m-110 -192 c0 -4
-11 4 -25 17 -14 13 -25 27 -25 31 0 5 11 -3 25 -17 14 -14 25 -28 25 -31z"/>
<path d="M1990 1239 c-9 -16 -8 -25 6 -40 9 -10 22 -19 29 -19 7 0 20 9 29 19
23 25 6 61 -29 61 -14 0 -29 -8 -35 -21z"/>
</g>
</svg>
